<svg xmlns="http://www.w3.org/2000/svg" viewBox="0 0 300 400" width="300" height="400">
  <defs>
    <linearGradient id="bodyGradient" x1="0%" y1="0%" x2="0%" y2="100%">
      <stop offset="0%" style="stop-color:#FFE4C4;stop-opacity:1" />
      <stop offset="100%" style="stop-color:#FFDAB9;stop-opacity:1" />
    </linearGradient>
    <linearGradient id="clothesGradient" x1="0%" y1="0%" x2="0%" y2="100%">
      <stop offset="0%" style="stop-color:#95A5A6;stop-opacity:1" />
      <stop offset="100%" style="stop-color:#7F8C8D;stop-opacity:1" />
    </linearGradient>
  </defs>
  
  <ellipse cx="150" cy="350" rx="80" ry="20" fill="#000000" opacity="0.1"/>
  
  <ellipse cx="150" cy="200" rx="60" ry="80" fill="url(#bodyGradient)"/>
  
  <rect x="120" y="200" width="60" height="120" rx="30" fill="url(#clothesGradient)"/>
  
  <ellipse cx="90" cy="240" rx="15" ry="30" fill="url(#bodyGradient)"/>
  <ellipse cx="210" cy="240" rx="15" ry="30" fill="url(#bodyGradient)"/>
  
  <rect x="135" y="310" width="30" height="60" rx="15" fill="url(#bodyGradient)"/>
  
  <ellipse cx="150" cy="360" rx="20" ry="12" fill="#8B4513"/>
  
  <circle cx="150" cy="130" r="60" fill="url(#bodyGradient)"/>
  
  <path d="M 120 125 Q 130 130 140 125" stroke="#2C3E50" stroke-width="3" fill="none" stroke-linecap="round"/>
  <path d="M 160 125 Q 170 130 180 125" stroke="#2C3E50" stroke-width="3" fill="none" stroke-linecap="round"/>
  
  <path d="M 130 150 Q 150 140 170 150" stroke="#3498DB" stroke-width="4" fill="none" stroke-linecap="round"/>
  
  <ellipse cx="105" cy="135" rx="10" ry="15" fill="#FFB6C1"/>
  <ellipse cx="195" cy="135" rx="10" ry="15" fill="#FFB6C1"/>
  
  <path d="M 90 90 Q 70 60 50 75 Q 60 100 85 110 Z" fill="url(#bodyGradient)"/>
  <path d="M 210 90 Q 230 60 250 75 Q 240 100 215 110 Z" fill="url(#bodyGradient)"/>
  
  <ellipse cx="150" cy="80" rx="50" ry="35" fill="#8B4513"/>
  
  <ellipse cx="130" cy="165" rx="3" ry="8" fill="#3498DB" opacity="0.6"/>
  <ellipse cx="145" cy="175" rx="2" ry="6" fill="#3498DB" opacity="0.5"/>
  
  <path d="M 130 105 Q 135 100 140 105" stroke="#8B4513" stroke-width="2" fill="none"/>
  <path d="M 170 105 Q 165 100 160 105" stroke="#8B4513" stroke-width="2" fill="none"/>
  
  <path d="M 140 190 L 145 185 M 160 190 L 155 185" stroke="#95A5A6" stroke-width="2" fill="none"/>
</svg>
