<svg xmlns="http://www.w3.org/2000/svg" viewBox="0 0 200 200" width="200" height="200">
  <defs>
    <linearGradient id="elfGradient" x1="0%" y1="0%" x2="100%" y2="100%">
      <stop offset="0%" style="stop-color:#667eea;stop-opacity:1" />
      <stop offset="100%" style="stop-color:#764ba2;stop-opacity:1" />
    </linearGradient>
  </defs>
  
  <rect width="200" height="200" rx="40" fill="url(#elfGradient)"/>
  
  <circle cx="100" cy="90" r="45" fill="#FFE4C4"/>
  
  <circle cx="85" cy="85" r="8" fill="#2C3E50"/>
  <circle cx="115" cy="85" r="8" fill="#2C3E50"/>
  
  <circle cx="87" cy="83" r="3" fill="#FFFFFF"/>
  <circle cx="117" cy="83" r="3" fill="#FFFFFF"/>
  
  <path d="M 85 100 Q 100 110 115 100" stroke="#E74C3C" stroke-width="3" fill="none" stroke-linecap="round"/>
  
  <ellipse cx="70" cy="95" rx="8" ry="12" fill="#FFB6C1"/>
  <ellipse cx="130" cy="95" rx="8" ry="12" fill="#FFB6C1"/>
  
  <path d="M 60 50 Q 50 30 40 40 Q 45 55 60 60 Z" fill="#FFE4C4"/>
  <path d="M 140 50 Q 150 30 160 40 Q 155 55 140 60 Z" fill="#FFE4C4"/>
  
  <ellipse cx="100" cy="40" rx="35" ry="25" fill="#8B4513"/>
  
  <path d="M 100 125 L 90 160 L 100 158 L 110 160 Z" fill="#667eea" opacity="0.8"/>
  <rect x="85" y="160" width="30" height="30" rx="5" fill="#667eea" opacity="0.8"/>
  
  <circle cx="100" cy="55" r="4" fill="#FFD700"/>
</svg>
